<svg width="5" height="5" viewBox="0 0 5 5" fill="none" xmlns="http://www.w3.org/2000/svg">
<path d="M3.87061 4.68519C3.82347 4.73233 3.76926 4.75826 3.70798 4.76298C3.6467 4.75826 3.59248 4.73233 3.54534 4.68519L2.07456 3.21441L0.624993 4.66398C0.577852 4.71112 0.52364 4.73705 0.462358 4.74176C0.401075 4.73705 0.346864 4.71112 0.299723 4.66398L0.0734492 4.43771C0.0263086 4.39057 0.00273861 4.33871 0.00273862 4.28214C0.00273866 4.21615 0.0263087 4.15958 0.0734492 4.11244L1.52302 2.66287L0.0946622 1.23451C0.0475218 1.18737 0.0239519 1.13552 0.0239519 1.07895C0.0239518 1.01295 0.0475218 0.956384 0.0946622 0.909244L0.34215 0.661757C0.38929 0.614616 0.443502 0.593403 0.504784 0.598117C0.566067 0.593403 0.620278 0.614616 0.667419 0.661757L2.09577 2.09011L3.55241 0.633472C3.59956 0.586332 3.65377 0.565119 3.71505 0.569833C3.77633 0.565119 3.83054 0.586332 3.87768 0.633473L4.10396 0.859747C4.1511 0.906887 4.17467 0.963456 4.17467 1.02945C4.17467 1.08602 4.1511 1.13788 4.10396 1.18502L2.64732 2.64166L4.1181 4.11244C4.16524 4.15958 4.18881 4.21615 4.18881 4.28214C4.18881 4.33871 4.16524 4.39057 4.1181 4.43771L3.87061 4.68519Z" fill="white"/>
</svg>

