<svg width="38" height="38" viewBox="0 0 38 38" fill="none" xmlns="http://www.w3.org/2000/svg">
<path d="M27.4239 28.6815C27.191 28.9144 26.9231 29.0425 26.6204 29.0658C26.3176 29.0425 26.0498 28.9144 25.8169 28.6815L18.5504 21.4151L11.3888 28.5767C11.1559 28.8096 10.888 28.9377 10.5853 28.961C10.2825 28.9377 10.0147 28.8096 9.78176 28.5767L8.66385 27.4588C8.43095 27.2259 8.3145 26.9697 8.3145 26.6903C8.3145 26.3642 8.43095 26.0847 8.66385 25.8518L15.8255 18.6902L8.76865 11.6333C8.53575 11.4004 8.4193 11.1443 8.4193 10.8648C8.4193 10.5387 8.53575 10.2592 8.76865 10.0263L9.99137 8.80361C10.2243 8.57071 10.4921 8.46591 10.7949 8.4892C11.0976 8.46591 11.3655 8.57071 11.5984 8.80361L18.6552 15.8605L25.8518 8.66387C26.0847 8.43097 26.3525 8.32617 26.6553 8.34946C26.9581 8.32617 27.2259 8.43097 27.4588 8.66387L28.5767 9.78179C28.8096 10.0147 28.9261 10.2942 28.9261 10.6202C28.9261 10.8997 28.8096 11.1559 28.5767 11.3888L21.3801 18.5854L28.6466 25.8518C28.8795 26.0847 28.9959 26.3642 28.9959 26.6903C28.9959 26.9697 28.8795 27.2259 28.6466 27.4588L27.4239 28.6815Z" fill="black"/>
</svg>
